<svg height="15" viewBox="0 0 21 15" width="21" xmlns="http://www.w3.org/2000/svg" xmlns:xlink="http://www.w3.org/1999/xlink"><linearGradient id="a" x1="50%" x2="50%" y1="0%" y2="100%"><stop offset="0" stop-color="#fff"/><stop offset="1" stop-color="#f0f0f0"/></linearGradient><linearGradient id="b" x1="50%" x2="50%" y1="0%" y2="100%"><stop offset="0" stop-color="#e92434"/><stop offset="1" stop-color="#e11324"/></linearGradient><g fill="none" fill-rule="evenodd"><path d="m0 0h21v15h-21z" fill="url(#a)"/><path d="m0 0h21v15h-21z" fill="url(#b)"/><path d="m13.052071 4.73691441c-.6354213-.46183088-1.4343269-.73691441-2.302071-.73691441-2.07106781 0-3.75 1.56700338-3.75 3.5s1.67893219 3.5 3.75 3.5c.8677441 0 1.6666497-.2750835 2.302071-.7369144-.823433 1.0570437-2.1083558 1.7369144-3.552071 1.7369144-2.48528137 0-4.5-2.01471863-4.5-4.5s2.01471863-4.5 4.5-4.5c1.4437152 0 2.728638.67987067 3.552071 1.73691441zm1.2135731 3.33935294-.9186147 1.11373868.0625728-1.44234239-1.343096-.52949038 1.3910852-.38619801.0885358-1.44098173.7971651 1.20365889 1.3978141-.36108531-.8984101 1.13010012.7753609 1.21781874z" fill="url(#a)"/></g></svg>